STARTFONT 2.1
FONT -Monotype-Nimrod-Regular-R-Normal--14-100-100-100-P-75-iso8859-5
SIZE 10 100 100
FONTBOUNDINGBOX 16 17 -1 -3

STARTPROPERTIES 24
FOUNDRY "Monotype"
FAMILY_NAME "Nimrod"
WEIGHT_NAME "Regular"
SLANT "R"
SETWIDTH_NAME "Normal"
ADD_STYLE_NAME ""
PIXEL_SIZE 14
POINT_SIZE 100
RESOLUTION_X 100
RESOLUTION_Y 100
SPACING "P"
AVERAGE_WIDTH 75
CHARSET_REGISTRY "iso8859"
CHARSET_ENCODING "5"
FACE_NAME "Nimrod ISO Latin Cyrillic"
_DEC_DEVICE_FONTNAMES "PS=nimrod-latcyrillic"
COPYRIGHT "Copyright (c) 1994 Monotype Typography Ltd."
CAP_HEIGHT 12
X_HEIGHT 9
WEIGHT 10
QUAD_WIDTH 10
DEFAULT_CHAR 160
FONT_DESCENT 3
FONT_ASCENT 14
ENDPROPERTIES

CHARS 191

STARTCHAR space
ENCODING 32
SWIDTH 250 0
DWIDTH 4 0
BBX 0 0 0 0
BITMAP
ENDCHAR

STARTCHAR exclam
ENCODING 33
SWIDTH 281 0
DWIDTH 4 0
BBX 1 11 2 0
BITMAP
80
80
80
80
80
80
80
80
00
80
80
ENDCHAR

STARTCHAR quotedbl
ENCODING 34
SWIDTH 406 0
DWIDTH 6 0
BBX 3 4 2 7
BITMAP
A0
A0
A0
A0
ENDCHAR

STARTCHAR numbersign
ENCODING 35
SWIDTH 667 0
DWIDTH 9 0
BBX 9 11 0 0
BITMAP
1100
1100
1100
7F80
2200
2200
2200
FF00
4400
4400
4400
ENDCHAR

STARTCHAR dollar
ENCODING 36
SWIDTH 500 0
DWIDTH 7 0
BBX 6 13 1 -2
BITMAP
10
78
94
94
90
70
18
14
94
94
78
10
10
ENDCHAR

STARTCHAR percent
ENCODING 37
SWIDTH 1000 0
DWIDTH 12 0
BBX 10 11 1 0
BITMAP
6100
9100
9200
9200
9400
6980
0A40
1240
1240
2240
2180
ENDCHAR

STARTCHAR ampersand
ENCODING 38
SWIDTH 781 0
DWIDTH 11 0
BBX 10 11 1 0
BITMAP
1800
2400
2400
2400
1800
3380
4900
8900
8640
8640
7980
ENDCHAR

STARTCHAR quoteright
ENCODING 39
SWIDTH 281 0
DWIDTH 4 0
BBX 2 4 1 7
BITMAP
40
40
40
80
ENDCHAR

STARTCHAR parenleft
ENCODING 40
SWIDTH 354 0
DWIDTH 5 0
BBX 4 13 1 -2
BITMAP
10
20
40
40
80
80
80
80
80
40
40
20
10
ENDCHAR

STARTCHAR parenright
ENCODING 41
SWIDTH 354 0
DWIDTH 5 0
BBX 4 13 1 -2
BITMAP
80
40
20
20
10
10
10
10
10
20
20
40
80
ENDCHAR

STARTCHAR asterisk
ENCODING 42
SWIDTH 469 0
DWIDTH 7 0
BBX 5 6 1 5
BITMAP
20
20
D8
20
50
50
ENDCHAR

STARTCHAR plus
ENCODING 43
SWIDTH 667 0
DWIDTH 9 0
BBX 7 7 1 1
BITMAP
10
10
10
FE
10
10
10
ENDCHAR

STARTCHAR comma
ENCODING 44
SWIDTH 281 0
DWIDTH 4 0
BBX 2 4 1 -2
BITMAP
40
40
40
80
ENDCHAR

STARTCHAR minus
ENCODING 45
SWIDTH 667 0
DWIDTH 9 0
BBX 7 1 1 4
BITMAP
FE
ENDCHAR

STARTCHAR period
ENCODING 46
SWIDTH 281 0
DWIDTH 4 0
BBX 1 2 2 0
BITMAP
80
80
ENDCHAR

STARTCHAR slash
ENCODING 47
SWIDTH 510 0
DWIDTH 7 0
BBX 7 11 0 0
BITMAP
02
04
04
08
08
10
20
20
40
40
80
ENDCHAR

STARTCHAR zero
ENCODING 48
SWIDTH 500 0
DWIDTH 7 0
BBX 6 11 1 0
BITMAP
30
48
84
84
84
84
84
84
84
48
30
ENDCHAR

STARTCHAR one
ENCODING 49
SWIDTH 500 0
DWIDTH 7 0
BBX 3 11 2 0
BITMAP
40
C0
40
40
40
40
40
40
40
40
E0
ENDCHAR

STARTCHAR two
ENCODING 50
SWIDTH 500 0
DWIDTH 7 0
BBX 6 11 1 0
BITMAP
78
84
84
04
08
08
10
20
44
84
FC
ENDCHAR

STARTCHAR three
ENCODING 51
SWIDTH 500 0
DWIDTH 7 0
BBX 6 11 1 0
BITMAP
78
84
84
04
08
38
04
04
84
84
78
ENDCHAR

STARTCHAR four
ENCODING 52
SWIDTH 500 0
DWIDTH 7 0
BBX 6 11 1 0
BITMAP
08
18
28
28
48
48
88
FC
08
08
1C
ENDCHAR

STARTCHAR five
ENCODING 53
SWIDTH 500 0
DWIDTH 7 0
BBX 6 11 1 0
BITMAP
7C
40
40
B0
C8
84
04
04
84
88
70
ENDCHAR

STARTCHAR six
ENCODING 54
SWIDTH 500 0
DWIDTH 7 0
BBX 6 11 1 0
BITMAP
38
44
44
80
B8
C4
84
84
84
44
38
ENDCHAR

STARTCHAR seven
ENCODING 55
SWIDTH 500 0
DWIDTH 7 0
BBX 6 11 1 0
BITMAP
FC
84
88
08
08
10
10
10
20
20
20
ENDCHAR

STARTCHAR eight
ENCODING 56
SWIDTH 500 0
DWIDTH 7 0
BBX 6 11 1 0
BITMAP
78
84
84
84
84
78
84
84
84
84
78
ENDCHAR

STARTCHAR nine
ENCODING 57
SWIDTH 500 0
DWIDTH 7 0
BBX 6 11 1 0
BITMAP
70
88
84
84
84
8C
74
04
88
88
70
ENDCHAR

STARTCHAR colon
ENCODING 58
SWIDTH 281 0
DWIDTH 4 0
BBX 1 8 2 0
BITMAP
80
80
00
00
00
00
80
80
ENDCHAR

STARTCHAR semicolon
ENCODING 59
SWIDTH 281 0
DWIDTH 4 0
BBX 2 10 1 -2
BITMAP
40
40
00
00
00
00
40
40
40
80
ENDCHAR

STARTCHAR less
ENCODING 60
SWIDTH 667 0
DWIDTH 9 0
BBX 7 7 1 1
BITMAP
02
0C
30
C0
30
0C
02
ENDCHAR

STARTCHAR equal
ENCODING 61
SWIDTH 667 0
DWIDTH 9 0
BBX 7 3 1 3
BITMAP
FE
00
FE
ENDCHAR

STARTCHAR greater
ENCODING 62
SWIDTH 667 0
DWIDTH 9 0
BBX 7 7 1 1
BITMAP
80
60
18
06
18
60
80
ENDCHAR

STARTCHAR question
ENCODING 63
SWIDTH 448 0
DWIDTH 6 0
BBX 5 11 1 0
BITMAP
70
C8
88
08
10
10
20
20
00
20
20
ENDCHAR

STARTCHAR at
ENCODING 64
SWIDTH 917 0
DWIDTH 13 0
BBX 12 13 1 -2
BITMAP
0F00
30C0
4020
46A0
8990
8890
9090
9120
9360
4D90
4020
30C0
0F00
ENDCHAR

STARTCHAR A
ENCODING 65
SWIDTH 802 0
DWIDTH 11 0
BBX 11 11 0 0
BITMAP
0400
0600
0A00
0A00
0900
1100
1080
3F80
2080
4040
E0E0
ENDCHAR

STARTCHAR B
ENCODING 66
SWIDTH 729 0
DWIDTH 10 0
BBX 8 11 1 0
BITMAP
FC
42
41
41
42
7C
42
41
41
42
FC
ENDCHAR

STARTCHAR C
ENCODING 67
SWIDTH 719 0
DWIDTH 10 0
BBX 9 11 1 0
BITMAP
1E00
6180
4080
8080
8000
8000
8000
8080
4080
6100
1E00
ENDCHAR

STARTCHAR D
ENCODING 68
SWIDTH 771 0
DWIDTH 11 0
BBX 9 11 1 0
BITMAP
FC00
4300
4100
4080
4080
4080
4080
4080
4100
4300
FC00
ENDCHAR

STARTCHAR E
ENCODING 69
SWIDTH 719 0
DWIDTH 10 0
BBX 8 11 1 0
BITMAP
FF
41
41
48
48
78
48
48
41
41
FF
ENDCHAR

STARTCHAR F
ENCODING 70
SWIDTH 667 0
DWIDTH 9 0
BBX 8 11 1 0
BITMAP
FF
41
41
45
44
7C
44
44
40
40
E0
ENDCHAR

STARTCHAR G
ENCODING 71
SWIDTH 792 0
DWIDTH 11 0
BBX 10 11 1 0
BITMAP
1E00
6180
4080
8080
8000
8000
81C0
8080
4080
6100
1E00
ENDCHAR

STARTCHAR H
ENCODING 72
SWIDTH 813 0
DWIDTH 11 0
BBX 10 11 1 0
BITMAP
E1C0
4080
4080
4080
4080
7F80
4080
4080
4080
4080
E1C0
ENDCHAR

STARTCHAR I
ENCODING 73
SWIDTH 385 0
DWIDTH 4 0
BBX 3 11 1 0
BITMAP
E0
40
40
40
40
40
40
40
40
40
E0
ENDCHAR

STARTCHAR J
ENCODING 74
SWIDTH 573 0
DWIDTH 8 0
BBX 7 11 1 0
BITMAP
0E
04
04
04
04
04
04
04
84
C8
70
ENDCHAR

STARTCHAR K
ENCODING 75
SWIDTH 781 0
DWIDTH 11 0
BBX 10 11 1 0
BITMAP
E380
4100
4200
4400
4800
7800
4400
4200
4100
4080
E1C0
ENDCHAR

STARTCHAR L
ENCODING 76
SWIDTH 677 0
DWIDTH 9 0
BBX 8 11 1 0
BITMAP
E0
40
40
40
40
40
40
41
41
41
FF
ENDCHAR

STARTCHAR M
ENCODING 77
SWIDTH 979 0
DWIDTH 14 0
BBX 13 11 1 0
BITMAP
E038
6030
5050
5050
5050
4890
4890
4510
4510
4210
E238
ENDCHAR

STARTCHAR N
ENCODING 78
SWIDTH 823 0
DWIDTH 12 0
BBX 10 11 1 0
BITMAP
E1C0
6080
5080
5080
4880
4880
4480
4280
4280
4180
E080
ENDCHAR

STARTCHAR O
ENCODING 79
SWIDTH 792 0
DWIDTH 11 0
BBX 10 11 1 0
BITMAP
1E00
6180
4080
8040
8040
8040
8040
8040
4080
6180
1E00
ENDCHAR

STARTCHAR P
ENCODING 80
SWIDTH 667 0
DWIDTH 9 0
BBX 8 11 1 0
BITMAP
FE
41
41
41
41
7E
40
40
40
40
E0
ENDCHAR

STARTCHAR Q
ENCODING 81
SWIDTH 792 0
DWIDTH 11 0
BBX 11 12 1 -1
BITMAP
1E00
6180
4080
8040
8040
8040
8040
9C40
6280
6380
1F00
00E0
ENDCHAR

STARTCHAR R
ENCODING 82
SWIDTH 729 0
DWIDTH 10 0
BBX 9 11 1 0
BITMAP
FE00
4100
4100
4100
4100
7E00
4400
4200
4200
4100
E180
ENDCHAR

STARTCHAR S
ENCODING 83
SWIDTH 615 0
DWIDTH 9 0
BBX 7 11 1 0
BITMAP
38
46
82
80
40
38
04
02
82
C4
38
ENDCHAR

STARTCHAR T
ENCODING 84
SWIDTH 698 0
DWIDTH 10 0
BBX 9 11 1 0
BITMAP
7F00
C980
8880
8880
0800
0800
0800
0800
0800
0800
1C00
ENDCHAR

STARTCHAR U
ENCODING 85
SWIDTH 771 0
DWIDTH 11 0
BBX 10 11 1 0
BITMAP
E1C0
4080
4080
4080
4080
4080
4080
4080
4080
2100
1E00
ENDCHAR

STARTCHAR V
ENCODING 86
SWIDTH 792 0
DWIDTH 12 0
BBX 11 11 1 0
BITMAP
E0E0
4040
4040
2080
2080
1100
1100
0A00
0A00
0400
0400
ENDCHAR

STARTCHAR W
ENCODING 87
SWIDTH 1010 0
DWIDTH 14 0
BBX 15 11 0 0
BITMAP
E38E
4104
4104
2288
2288
2288
1450
1450
0C60
0820
0820
ENDCHAR

STARTCHAR X
ENCODING 88
SWIDTH 729 0
DWIDTH 10 0
BBX 10 11 0 0
BITMAP
E1C0
4080
2100
1200
0C00
0C00
1600
2100
2100
4080
E1C0
ENDCHAR

STARTCHAR Y
ENCODING 89
SWIDTH 729 0
DWIDTH 10 0
BBX 10 11 1 0
BITMAP
E1C0
4080
2100
2200
1200
1400
0800
0800
0800
0800
1C00
ENDCHAR

STARTCHAR Z
ENCODING 90
SWIDTH 625 0
DWIDTH 9 0
BBX 8 11 1 0
BITMAP
7F
41
82
84
08
10
10
21
41
82
FE
ENDCHAR

STARTCHAR bracketleft
ENCODING 91
SWIDTH 344 0
DWIDTH 5 0
BBX 3 13 1 -2
BITMAP
E0
80
80
80
80
80
80
80
80
80
80
80
E0
ENDCHAR

STARTCHAR backslash
ENCODING 92
SWIDTH 510 0
DWIDTH 7 0
BBX 7 11 0 0
BITMAP
80
40
40
20
20
10
08
08
04
04
02
ENDCHAR

STARTCHAR bracketright
ENCODING 93
SWIDTH 344 0
DWIDTH 5 0
BBX 3 13 1 -2
BITMAP
E0
20
20
20
20
20
20
20
20
20
20
20
E0
ENDCHAR

STARTCHAR asciicircum
ENCODING 94
SWIDTH 469 0
DWIDTH 7 0
BBX 7 4 0 7
BITMAP
10
28
44
82
ENDCHAR

STARTCHAR underscore
ENCODING 95
SWIDTH 500 0
DWIDTH 7 0
BBX 7 1 0 -3
BITMAP
FE
ENDCHAR

STARTCHAR quoteleft
ENCODING 96
SWIDTH 281 0
DWIDTH 4 0
BBX 2 4 1 7
BITMAP
40
80
80
80
ENDCHAR

STARTCHAR a
ENCODING 97
SWIDTH 563 0
DWIDTH 8 0
BBX 7 8 1 0
BITMAP
78
84
84
3C
44
84
8C
76
ENDCHAR

STARTCHAR b
ENCODING 98
SWIDTH 594 0
DWIDTH 8 0
BBX 7 11 0 0
BITMAP
C0
40
40
5C
62
42
42
42
42
62
5C
ENDCHAR

STARTCHAR c
ENCODING 99
SWIDTH 510 0
DWIDTH 7 0
BBX 6 8 1 0
BITMAP
78
84
84
80
80
80
84
78
ENDCHAR

STARTCHAR d
ENCODING 100
SWIDTH 594 0
DWIDTH 8 0
BBX 7 11 1 0
BITMAP
0C
04
04
74
8C
84
84
84
84
8C
76
ENDCHAR

STARTCHAR e
ENCODING 101
SWIDTH 521 0
DWIDTH 7 0
BBX 6 8 1 0
BITMAP
78
84
84
FC
80
80
84
78
ENDCHAR

STARTCHAR f
ENCODING 102
SWIDTH 344 0
DWIDTH 5 0
BBX 6 11 1 0
BITMAP
38
44
40
E0
40
40
40
40
40
40
E0
ENDCHAR

STARTCHAR g
ENCODING 103
SWIDTH 552 0
DWIDTH 8 0
BBX 7 10 1 -2
BITMAP
7A
84
84
84
78
C0
7C
82
82
7C
ENDCHAR

STARTCHAR h
ENCODING 104
SWIDTH 646 0
DWIDTH 9 0
BBX 8 11 1 0
BITMAP
C0
40
40
5C
62
42
42
42
42
42
E7
ENDCHAR

STARTCHAR i
ENCODING 105
SWIDTH 365 0
DWIDTH 4 0
BBX 3 11 1 0
BITMAP
40
40
00
C0
40
40
40
40
40
40
E0
ENDCHAR

STARTCHAR j
ENCODING 106
SWIDTH 323 0
DWIDTH 5 0
BBX 4 13 0 -2
BITMAP
10
10
00
30
10
10
10
10
10
10
10
90
60
ENDCHAR

STARTCHAR k
ENCODING 107
SWIDTH 625 0
DWIDTH 9 0
BBX 8 11 1 0
BITMAP
C0
40
40
4E
44
48
58
64
44
42
E7
ENDCHAR

STARTCHAR l
ENCODING 108
SWIDTH 333 0
DWIDTH 4 0
BBX 3 11 1 0
BITMAP
C0
40
40
40
40
40
40
40
40
40
E0
ENDCHAR

STARTCHAR m
ENCODING 109
SWIDTH 938 0
DWIDTH 13 0
BBX 13 8 0 0
BITMAP
DCE0
6310
4210
4210
4210
4210
4210
E738
ENDCHAR

STARTCHAR n
ENCODING 110
SWIDTH 646 0
DWIDTH 9 0
BBX 8 8 1 0
BITMAP
DC
62
42
42
42
42
42
E7
ENDCHAR

STARTCHAR o
ENCODING 111
SWIDTH 562 0
DWIDTH 8 0
BBX 6 8 1 0
BITMAP
78
84
84
84
84
84
84
78
ENDCHAR

STARTCHAR p
ENCODING 112
SWIDTH 594 0
DWIDTH 8 0
BBX 7 10 0 -2
BITMAP
DC
62
42
42
42
42
62
5C
40
E0
ENDCHAR

STARTCHAR q
ENCODING 113
SWIDTH 594 0
DWIDTH 8 0
BBX 7 10 1 -2
BITMAP
74
8C
84
84
84
84
8C
74
04
0E
ENDCHAR

STARTCHAR r
ENCODING 114
SWIDTH 490 0
DWIDTH 7 0
BBX 6 8 1 0
BITMAP
D8
64
40
40
40
40
40
E0
ENDCHAR

STARTCHAR s
ENCODING 115
SWIDTH 479 0
DWIDTH 7 0
BBX 5 8 1 0
BITMAP
70
88
80
60
10
08
88
70
ENDCHAR

STARTCHAR t
ENCODING 116
SWIDTH 375 0
DWIDTH 5 0
BBX 5 11 1 0
BITMAP
40
40
40
F0
40
40
40
40
40
48
30
ENDCHAR

STARTCHAR u
ENCODING 117
SWIDTH 646 0
DWIDTH 9 0
BBX 8 8 1 0
BITMAP
C6
42
42
42
42
42
46
3B
ENDCHAR

STARTCHAR v
ENCODING 118
SWIDTH 594 0
DWIDTH 9 0
BBX 9 8 0 0
BITMAP
E380
4100
2200
2200
1400
1400
0800
0800
ENDCHAR

STARTCHAR w
ENCODING 119
SWIDTH 833 0
DWIDTH 11 0
BBX 11 8 0 0
BITMAP
EEE0
4440
4440
2A80
2A80
2A80
1300
1100
ENDCHAR

STARTCHAR x
ENCODING 120
SWIDTH 583 0
DWIDTH 8 0
BBX 8 8 0 0
BITMAP
E7
42
24
18
18
24
42
E7
ENDCHAR

STARTCHAR y
ENCODING 121
SWIDTH 594 0
DWIDTH 8 0
BBX 8 10 0 -2
BITMAP
E7
42
42
24
24
14
18
08
D0
60
ENDCHAR

STARTCHAR z
ENCODING 122
SWIDTH 479 0
DWIDTH 7 0
BBX 6 8 1 0
BITMAP
FC
84
88
10
20
44
84
FC
ENDCHAR

STARTCHAR braceleft
ENCODING 123
SWIDTH 479 0
DWIDTH 7 0
BBX 3 13 2 -2
BITMAP
20
40
40
40
40
40
80
40
40
40
40
40
20
ENDCHAR

STARTCHAR bar
ENCODING 124
SWIDTH 510 0
DWIDTH 7 0
BBX 1 11 3 0
BITMAP
80
80
80
80
80
80
80
80
80
80
80
ENDCHAR

STARTCHAR braceright
ENCODING 125
SWIDTH 479 0
DWIDTH 7 0
BBX 3 13 2 -2
BITMAP
80
40
40
40
40
40
20
40
40
40
40
40
80
ENDCHAR

STARTCHAR asciitilde
ENCODING 126
SWIDTH 667 0
DWIDTH 9 0
BBX 8 2 1 4
BITMAP
71
8E
ENDCHAR

STARTCHAR space
ENCODING 160
SWIDTH 250 0
DWIDTH 4 0
BBX 0 0 0 0
BITMAP
ENDCHAR

STARTCHAR afii10023
ENCODING 161
SWIDTH 698 0
DWIDTH 10 0
BBX 8 14 1 0
BITMAP
24
24
00
FF
41
41
48
48
78
48
48
41
41
FF
ENDCHAR

STARTCHAR afii10051
ENCODING 162
SWIDTH 875 0
DWIDTH 12 0
BBX 12 11 0 0
BITMAP
7F00
C980
8880
0800
0BC0
0C20
0810
0810
0810
0810
1C60
ENDCHAR

STARTCHAR afii10052
ENCODING 163
SWIDTH 635 0
DWIDTH 9 0
BBX 8 14 1 0
BITMAP
0C
10
00
FF
41
41
40
40
40
40
40
40
40
E0
ENDCHAR

STARTCHAR afii10053
ENCODING 164
SWIDTH 698 0
DWIDTH 10 0
BBX 9 11 1 0
BITMAP
1F00
6180
4080
8000
8000
FC00
8000
8080
4080
6100
1E00
ENDCHAR

STARTCHAR afii10054
ENCODING 165
SWIDTH 594 0
DWIDTH 9 0
BBX 7 11 1 0
BITMAP
38
46
82
80
40
38
04
02
82
C4
38
ENDCHAR

STARTCHAR afii10055
ENCODING 166
SWIDTH 385 0
DWIDTH 4 0
BBX 3 11 1 0
BITMAP
E0
40
40
40
40
40
40
40
40
40
E0
ENDCHAR

STARTCHAR afii10056
ENCODING 167
SWIDTH 385 0
DWIDTH 4 0
BBX 4 14 0 0
BITMAP
90
90
00
70
20
20
20
20
20
20
20
20
20
70
ENDCHAR

STARTCHAR afii10057
ENCODING 168
SWIDTH 573 0
DWIDTH 8 0
BBX 7 11 1 0
BITMAP
0E
04
04
04
04
04
04
04
84
C8
70
ENDCHAR

STARTCHAR afii10058
ENCODING 169
SWIDTH 1092 0
DWIDTH 15 0
BBX 15 11 0 0
BITMAP
3FC0
1080
1080
1080
1080
10F8
1084
1082
9082
D084
61F8
ENDCHAR

STARTCHAR afii10059
ENCODING 170
SWIDTH 1089 0
DWIDTH 15 0
BBX 14 11 1 0
BITMAP
E380
4100
4100
4100
4100
7FF0
4108
4104
4104
4108
E3F0
ENDCHAR

STARTCHAR afii10060
ENCODING 171
SWIDTH 885 0
DWIDTH 12 0
BBX 12 11 0 0
BITMAP
7F00
C980
8880
0800
0BC0
0C20
0820
0820
0820
0820
1C70
ENDCHAR

STARTCHAR afii10061
ENCODING 172
SWIDTH 759 0
DWIDTH 11 0
BBX 9 14 1 0
BITMAP
0C00
1000
0000
E380
4480
4400
4400
4800
7C00
4400
4200
4200
4100
E180
ENDCHAR

STARTCHAR hyphen
ENCODING 173
SWIDTH 281 0
DWIDTH 4 0
BBX 2 1 1 3
BITMAP
C0
ENDCHAR

STARTCHAR afii10062
ENCODING 174
SWIDTH 732 0
DWIDTH 10 0
BBX 10 14 1 0
BITMAP
1100
0E00
0000
E1C0
4080
2080
2100
1100
1200
0A00
0C00
4400
6800
3000
ENDCHAR

STARTCHAR afii10145
ENCODING 175
SWIDTH 823 0
DWIDTH 11 0
BBX 10 13 1 -2
BITMAP
E1C0
4080
4080
4080
4080
4080
4080
4080
4080
4080
FFC0
0800
0800
ENDCHAR

STARTCHAR afii10017
ENCODING 176
SWIDTH 792 0
DWIDTH 11 0
BBX 11 11 0 0
BITMAP
0400
0600
0A00
0A00
0900
1100
1080
3F80
2080
4040
E0E0
ENDCHAR

STARTCHAR afii10018
ENCODING 177
SWIDTH 701 0
DWIDTH 9 0
BBX 8 11 1 0
BITMAP
FF
41
41
40
40
7C
42
41
41
42
FC
ENDCHAR

STARTCHAR afii10019
ENCODING 178
SWIDTH 719 0
DWIDTH 10 0
BBX 8 11 1 0
BITMAP
FC
42
41
41
42
7C
42
41
41
42
FC
ENDCHAR

STARTCHAR afii10020
ENCODING 179
SWIDTH 635 0
DWIDTH 9 0
BBX 8 11 1 0
BITMAP
FF
41
41
40
40
40
40
40
40
40
E0
ENDCHAR

STARTCHAR afii10021
ENCODING 180
SWIDTH 760 0
DWIDTH 10 0
BBX 9 13 1 -2
BITMAP
7F80
2100
2100
2100
2100
2100
2100
4100
4100
4100
FF80
8080
8080
ENDCHAR

STARTCHAR afii10022
ENCODING 181
SWIDTH 698 0
DWIDTH 10 0
BBX 8 11 1 0
BITMAP
FF
41
41
48
48
78
48
48
41
41
FF
ENDCHAR

STARTCHAR afii10024
ENCODING 182
SWIDTH 1115 0
DWIDTH 15 0
BBX 13 11 1 0
BITMAP
E738
9248
1240
1240
0A80
1FC0
1240
2220
2220
4210
C718
ENDCHAR

STARTCHAR afii10025
ENCODING 183
SWIDTH 601 0
DWIDTH 8 0
BBX 7 11 1 0
BITMAP
78
C4
82
02
04
38
04
02
82
84
78
ENDCHAR

STARTCHAR afii10026
ENCODING 184
SWIDTH 823 0
DWIDTH 11 0
BBX 10 11 1 0
BITMAP
E1C0
4080
4080
4180
4280
4480
4880
5080
6080
4080
E1C0
ENDCHAR

STARTCHAR afii10027
ENCODING 185
SWIDTH 823 0
DWIDTH 11 0
BBX 10 14 1 0
BITMAP
1100
0E00
0000
E1C0
4080
4080
4180
4280
4480
4880
5080
6080
4080
E1C0
ENDCHAR

STARTCHAR afii10028
ENCODING 186
SWIDTH 759 0
DWIDTH 11 0
BBX 9 11 1 0
BITMAP
E380
4480
4400
4400
4800
7C00
4400
4200
4200
4100
E180
ENDCHAR

STARTCHAR afii10029
ENCODING 187
SWIDTH 789 0
DWIDTH 11 0
BBX 11 11 0 0
BITMAP
1FE0
0840
0840
0840
0840
0840
0840
0840
8840
D040
60E0
ENDCHAR

STARTCHAR afii10030
ENCODING 188
SWIDTH 979 0
DWIDTH 14 0
BBX 13 11 1 0
BITMAP
E038
6030
5050
5050
5050
4890
4890
4510
4510
4210
E238
ENDCHAR

STARTCHAR afii10031
ENCODING 189
SWIDTH 812 0
DWIDTH 11 0
BBX 10 11 1 0
BITMAP
E1C0
4080
4080
4080
4080
7F80
4080
4080
4080
4080
E1C0
ENDCHAR

STARTCHAR afii10032
ENCODING 190
SWIDTH 767 0
DWIDTH 11 0
BBX 10 11 1 0
BITMAP
1E00
6180
4080
8040
8040
8040
8040
8040
4080
6180
1E00
ENDCHAR

STARTCHAR afii10033
ENCODING 191
SWIDTH 823 0
DWIDTH 11 0
BBX 10 11 1 0
BITMAP
FFC0
4080
4080
4080
4080
4080
4080
4080
4080
4080
E1C0
ENDCHAR

STARTCHAR afii10034
ENCODING 192
SWIDTH 662 0
DWIDTH 9 0
BBX 8 11 1 0
BITMAP
FE
41
41
41
41
7E
40
40
40
40
E0
ENDCHAR

STARTCHAR afii10035
ENCODING 193
SWIDTH 694 0
DWIDTH 10 0
BBX 9 11 1 0
BITMAP
1E00
6180
4080
8080
8000
8000
8000
8080
4080
6100
1E00
ENDCHAR

STARTCHAR afii10036
ENCODING 194
SWIDTH 688 0
DWIDTH 10 0
BBX 9 11 1 0
BITMAP
7F00
C980
8880
8880
0800
0800
0800
0800
0800
0800
1C00
ENDCHAR

STARTCHAR afii10037
ENCODING 195
SWIDTH 732 0
DWIDTH 10 0
BBX 10 11 1 0
BITMAP
E1C0
4080
2080
2100
1100
1200
0A00
0C00
4400
6800
3000
ENDCHAR

STARTCHAR afii10038
ENCODING 196
SWIDTH 799 0
DWIDTH 12 0
BBX 11 11 1 0
BITMAP
0E00
0400
3F80
4440
8420
8420
8420
4440
3F80
0400
0E00
ENDCHAR

STARTCHAR afii10039
ENCODING 197
SWIDTH 729 0
DWIDTH 10 0
BBX 10 11 0 0
BITMAP
E1C0
4080
2100
1200
0C00
0C00
1600
2100
2100
4080
E1C0
ENDCHAR

STARTCHAR afii10040
ENCODING 198
SWIDTH 823 0
DWIDTH 11 0
BBX 10 13 1 -2
BITMAP
E1C0
4080
4080
4080
4080
4080
4080
4080
4080
4080
FFC0
0040
0040
ENDCHAR

STARTCHAR afii10041
ENCODING 199
SWIDTH 761 0
DWIDTH 10 0
BBX 9 11 1 0
BITMAP
E380
4100
4100
4100
4100
2300
1D00
0100
0100
0100
0380
ENDCHAR

STARTCHAR afii10042
ENCODING 200
SWIDTH 1073 0
DWIDTH 14 0
BBX 13 11 1 0
BITMAP
E738
4210
4210
4210
4210
4210
4210
4210
4210
4210
FFF8
ENDCHAR

STARTCHAR afii10043
ENCODING 201
SWIDTH 1073 0
DWIDTH 14 0
BBX 13 13 1 -2
BITMAP
E738
4210
4210
4210
4210
4210
4210
4210
4210
4210
FFF8
0008
0008
ENDCHAR

STARTCHAR afii10044
ENCODING 202
SWIDTH 879 0
DWIDTH 11 0
BBX 11 11 0 0
BITMAP
FC00
8800
8800
0800
0800
0F80
0840
0820
0820
0840
1F80
ENDCHAR

STARTCHAR afii10045
ENCODING 203
SWIDTH 1042 0
DWIDTH 12 0
BBX 11 11 1 0
BITMAP
E0E0
4040
4040
4040
4040
7C40
4240
4140
4140
4240
FCE0
ENDCHAR

STARTCHAR afii10046
ENCODING 204
SWIDTH 704 0
DWIDTH 9 0
BBX 8 11 1 0
BITMAP
E0
40
40
40
40
7C
42
41
41
42
FC
ENDCHAR

STARTCHAR afii10047
ENCODING 205
SWIDTH 698 0
DWIDTH 10 0
BBX 9 11 1 0
BITMAP
7C00
C300
8100
0080
0080
1F80
0080
8080
8100
4300
3C00
ENDCHAR

STARTCHAR afii10048
ENCODING 206
SWIDTH 1104 0
DWIDTH 15 0
BBX 14 11 1 0
BITMAP
E1E0
4618
4408
4804
4804
7804
4804
4804
4408
4618
E1E0
ENDCHAR

STARTCHAR afii10049
ENCODING 207
SWIDTH 729 0
DWIDTH 10 0
BBX 9 11 1 0
BITMAP
3F80
4100
4100
4100
4100
3F00
1100
2100
2100
4100
C380
ENDCHAR

STARTCHAR afii10065
ENCODING 208
SWIDTH 563 0
DWIDTH 8 0
BBX 7 8 1 0
BITMAP
78
84
84
3C
44
84
8C
76
ENDCHAR

STARTCHAR afii10066
ENCODING 209
SWIDTH 567 0
DWIDTH 8 0
BBX 7 11 1 0
BITMAP
02
7C
80
B8
C4
84
84
84
84
84
78
ENDCHAR

STARTCHAR afii10067
ENCODING 210
SWIDTH 559 0
DWIDTH 9 0
BBX 7 8 1 0
BITMAP
FC
42
42
7C
42
42
42
FC
ENDCHAR

STARTCHAR afii10068
ENCODING 211
SWIDTH 504 0
DWIDTH 7 0
BBX 6 8 1 0
BITMAP
FC
44
44
40
40
40
40
E0
ENDCHAR

STARTCHAR afii10069
ENCODING 212
SWIDTH 616 0
DWIDTH 9 0
BBX 9 10 0 -2
BITMAP
7F80
2100
2100
2100
2100
4100
4100
FF80
8080
8080
ENDCHAR

STARTCHAR afii10070
ENCODING 213
SWIDTH 513 0
DWIDTH 7 0
BBX 6 8 1 0
BITMAP
78
84
84
FC
80
80
84
78
ENDCHAR

STARTCHAR afii10072
ENCODING 214
SWIDTH 844 0
DWIDTH 13 0
BBX 11 8 1 0
BITMAP
CE60
A4A0
2480
1F00
2480
2480
4440
CE60
ENDCHAR

STARTCHAR afii10073
ENCODING 215
SWIDTH 479 0
DWIDTH 8 0
BBX 6 8 1 0
BITMAP
78
44
44
18
04
84
C4
78
ENDCHAR

STARTCHAR afii10074
ENCODING 216
SWIDTH 646 0
DWIDTH 9 0
BBX 8 8 1 0
BITMAP
E7
42
46
4A
52
62
42
E7
ENDCHAR

STARTCHAR afii10075
ENCODING 217
SWIDTH 646 0
DWIDTH 9 0
BBX 8 11 1 0
BITMAP
24
18
00
E7
42
46
4A
52
62
42
E7
ENDCHAR

STARTCHAR afii10076
ENCODING 218
SWIDTH 602 0
DWIDTH 9 0
BBX 7 8 1 0
BITMAP
E6
4A
48
70
48
48
44
E6
ENDCHAR

STARTCHAR afii10077
ENCODING 219
SWIDTH 639 0
DWIDTH 9 0
BBX 9 8 0 0
BITMAP
7F80
2100
2100
2100
2100
2100
A100
C380
ENDCHAR

STARTCHAR afii10078
ENCODING 220
SWIDTH 784 0
DWIDTH 10 0
BBX 9 8 1 0
BITMAP
C180
6300
6300
5500
5500
4900
4900
E380
ENDCHAR

STARTCHAR afii10079
ENCODING 221
SWIDTH 646 0
DWIDTH 9 0
BBX 8 8 1 0
BITMAP
E7
42
42
7E
42
42
42
E7
ENDCHAR

STARTCHAR afii10080
ENCODING 222
SWIDTH 548 0
DWIDTH 8 0
BBX 6 8 1 0
BITMAP
78
84
84
84
84
84
84
78
ENDCHAR

STARTCHAR afii10081
ENCODING 223
SWIDTH 646 0
DWIDTH 9 0
BBX 8 8 1 0
BITMAP
FF
42
42
42
42
42
42
E7
ENDCHAR

STARTCHAR afii10082
ENCODING 224
SWIDTH 594 0
DWIDTH 8 0
BBX 7 10 0 -2
BITMAP
DC
62
42
42
42
42
62
5C
40
E0
ENDCHAR

STARTCHAR afii10083
ENCODING 225
SWIDTH 500 0
DWIDTH 7 0
BBX 6 8 1 0
BITMAP
78
84
84
80
80
80
84
78
ENDCHAR

STARTCHAR afii10084
ENCODING 226
SWIDTH 552 0
DWIDTH 7 0
BBX 7 8 0 0
BITMAP
FE
92
92
10
10
10
10
38
ENDCHAR

STARTCHAR afii10085
ENCODING 227
SWIDTH 573 0
DWIDTH 8 0
BBX 8 10 0 -2
BITMAP
E7
42
42
24
24
14
18
08
D0
60
ENDCHAR

STARTCHAR afii10086
ENCODING 228
SWIDTH 746 0
DWIDTH 11 0
BBX 9 13 1 -2
BITMAP
0800
1800
0800
6B00
9C80
8880
8880
8880
8880
9C80
6B00
0800
1C00
ENDCHAR

STARTCHAR afii10087
ENCODING 229
SWIDTH 583 0
DWIDTH 8 0
BBX 8 8 0 0
BITMAP
E7
42
24
18
18
24
42
E7
ENDCHAR

STARTCHAR afii10088
ENCODING 230
SWIDTH 646 0
DWIDTH 9 0
BBX 8 10 1 -2
BITMAP
E7
42
42
42
42
42
42
FF
01
01
ENDCHAR

STARTCHAR afii10089
ENCODING 231
SWIDTH 625 0
DWIDTH 8 0
BBX 8 8 0 0
BITMAP
E7
42
42
46
3A
02
02
07
ENDCHAR

STARTCHAR afii10090
ENCODING 232
SWIDTH 927 0
DWIDTH 12 0
BBX 11 8 1 0
BITMAP
EEE0
4440
4440
4440
4440
4440
4440
FFE0
ENDCHAR

STARTCHAR afii10091
ENCODING 233
SWIDTH 927 0
DWIDTH 12 0
BBX 11 10 1 -2
BITMAP
EEE0
4440
4440
4440
4440
4440
4440
FFE0
0020
0020
ENDCHAR

STARTCHAR afii10092
ENCODING 234
SWIDTH 695 0
DWIDTH 10 0
BBX 9 8 0 0
BITMAP
F800
9000
9000
1F00
1080
1080
1080
3F00
ENDCHAR

STARTCHAR afii10093
ENCODING 235
SWIDTH 833 0
DWIDTH 11 0
BBX 10 8 1 0
BITMAP
E1C0
4080
4080
7C80
4280
4280
4280
FDC0
ENDCHAR

STARTCHAR afii10094
ENCODING 236
SWIDTH 565 0
DWIDTH 9 0
BBX 7 8 1 0
BITMAP
E0
40
40
7C
42
42
42
FC
ENDCHAR

STARTCHAR afii10095
ENCODING 237
SWIDTH 490 0
DWIDTH 8 0
BBX 6 8 1 0
BITMAP
78
C4
84
1C
04
84
C4
78
ENDCHAR

STARTCHAR afii10096
ENCODING 238
SWIDTH 833 0
DWIDTH 12 0
BBX 10 8 1 0
BITMAP
E780
4840
4840
7840
4840
4840
4840
E780
ENDCHAR

STARTCHAR afii10097
ENCODING 239
SWIDTH 577 0
DWIDTH 8 0
BBX 7 8 1 0
BITMAP
3E
44
44
44
3C
24
44
CE
ENDCHAR

STARTCHAR afii61352
ENCODING 240
SWIDTH 1053 0
DWIDTH 16 0
BBX 15 11 0 0
BITMAP
3030
1858
1840
144C
1452
1252
1252
1152
114C
D0C0
605E
ENDCHAR

STARTCHAR afii10071
ENCODING 241
SWIDTH 513 0
DWIDTH 7 0
BBX 6 11 1 0
BITMAP
48
48
00
78
84
84
FC
80
80
84
78
ENDCHAR

STARTCHAR afii10099
ENCODING 242
SWIDTH 574 0
DWIDTH 9 0
BBX 7 13 1 -2
BITMAP
40
FC
40
5C
62
42
42
42
42
42
E2
02
04
ENDCHAR

STARTCHAR afii10100
ENCODING 243
SWIDTH 504 0
DWIDTH 7 0
BBX 6 11 1 0
BITMAP
18
20
00
FC
44
44
40
40
40
40
E0
ENDCHAR

STARTCHAR afii10101
ENCODING 244
SWIDTH 500 0
DWIDTH 8 0
BBX 6 8 1 0
BITMAP
78
8C
84
E0
80
84
8C
78
ENDCHAR

STARTCHAR afii10102
ENCODING 245
SWIDTH 458 0
DWIDTH 7 0
BBX 5 8 1 0
BITMAP
70
88
80
60
10
08
88
70
ENDCHAR

STARTCHAR afii10103
ENCODING 246
SWIDTH 354 0
DWIDTH 4 0
BBX 3 11 1 0
BITMAP
40
40
00
C0
40
40
40
40
40
40
E0
ENDCHAR

STARTCHAR afii10104
ENCODING 247
SWIDTH 354 0
DWIDTH 4 0
BBX 4 11 0 0
BITMAP
90
90
00
60
20
20
20
20
20
20
70
ENDCHAR

STARTCHAR afii10105
ENCODING 248
SWIDTH 323 0
DWIDTH 5 0
BBX 4 13 0 -2
BITMAP
10
10
00
30
10
10
10
10
10
10
10
90
60
ENDCHAR

STARTCHAR afii10106
ENCODING 249
SWIDTH 887 0
DWIDTH 13 0
BBX 12 8 0 0
BITMAP
7F00
2200
2200
23E0
2210
2210
A210
C7E0
ENDCHAR

STARTCHAR afii10107
ENCODING 250
SWIDTH 888 0
DWIDTH 14 0
BBX 12 8 1 0
BITMAP
E700
4200
4200
7FE0
4210
4210
4210
E7E0
ENDCHAR

STARTCHAR afii10108
ENCODING 251
SWIDTH 635 0
DWIDTH 9 0
BBX 8 11 1 0
BITMAP
40
FC
40
5C
62
42
42
42
42
42
E7
ENDCHAR

STARTCHAR afii10109
ENCODING 252
SWIDTH 602 0
DWIDTH 9 0
BBX 7 11 1 0
BITMAP
18
20
00
E6
4A
48
70
48
48
44
E6
ENDCHAR

STARTCHAR section
ENCODING 253
SWIDTH 490 0
DWIDTH 8 0
BBX 6 13 1 -2
BITMAP
38
44
48
60
50
88
84
44
28
18
48
88
70
ENDCHAR

STARTCHAR afii10110
ENCODING 254
SWIDTH 573 0
DWIDTH 8 0
BBX 8 13 0 -2
BITMAP
24
18
00
E7
42
42
24
24
14
18
08
D0
60
ENDCHAR

STARTCHAR afii10193
ENCODING 255
SWIDTH 646 0
DWIDTH 9 0
BBX 8 10 1 -2
BITMAP
E7
42
42
42
42
42
42
FF
10
10
ENDCHAR
ENDFONT
